<mxfile host="65bd71144e">
    <diagram id="VQoslEBS4CmnqMTdLi9t" name="Página-1">
        <mxGraphModel dx="758" dy="563" grid="1" gridSize="10" guides="1" tooltips="1" connect="1" arrows="1" fold="1" page="1" pageScale="1" pageWidth="827" pageHeight="1169" math="0" shadow="0">
            <root>
                <mxCell id="0"/>
                <mxCell id="1" parent="0"/>
                <mxCell id="2" value="Contraseñas" style="swimlane;fontStyle=1;align=center;verticalAlign=top;childLayout=stackLayout;horizontal=1;startSize=26;horizontalStack=0;resizeParent=1;resizeParentMax=0;resizeLast=0;collapsible=1;marginBottom=0;whiteSpace=wrap;html=1;" vertex="1" parent="1">
                    <mxGeometry x="250" y="190" width="290" height="230" as="geometry"/>
                </mxCell>
                <mxCell id="3" value="&amp;nbsp;- longitud: int&amp;nbsp;&lt;br&gt;&amp;nbsp;- incluirMayusculas: &lt;span class=&quot;hljs-type&quot;&gt;boolean&lt;/span&gt;&amp;nbsp;&lt;br&gt;&amp;nbsp;- incluirCaracteresEspeciales: &lt;span class=&quot;hljs-type&quot;&gt;boolean&lt;/span&gt;&amp;nbsp;&lt;br&gt;&amp;nbsp;- minusculas: &lt;span class=&quot;hljs-keyword&quot;&gt;static&lt;/span&gt; &lt;span class=&quot;hljs-type&quot;&gt;String&lt;/span&gt;&amp;nbsp;&lt;br&gt;&amp;nbsp;- MAYUSCULAS: &lt;span class=&quot;hljs-keyword&quot;&gt;static&lt;/span&gt; &lt;span class=&quot;hljs-type&quot;&gt;String&lt;/span&gt;&amp;nbsp;&lt;br&gt;&amp;nbsp;- especiales: &lt;span class=&quot;hljs-keyword&quot;&gt;static&lt;/span&gt; &lt;span class=&quot;hljs-type&quot;&gt;String&lt;/span&gt;" style="text;strokeColor=none;fillColor=none;align=left;verticalAlign=top;spacingLeft=4;spacingRight=4;overflow=hidden;rotatable=0;points=[[0,0.5],[1,0.5]];portConstraint=eastwest;whiteSpace=wrap;html=1;" vertex="1" parent="2">
                    <mxGeometry y="26" width="290" height="104" as="geometry"/>
                </mxCell>
                <mxCell id="4" value="" style="line;strokeWidth=1;fillColor=none;align=left;verticalAlign=middle;spacingTop=-1;spacingLeft=3;spacingRight=3;rotatable=0;labelPosition=right;points=[];portConstraint=eastwest;strokeColor=inherit;" vertex="1" parent="2">
                    <mxGeometry y="130" width="290" height="8" as="geometry"/>
                </mxCell>
                <mxCell id="5" value="&amp;nbsp;+ GeneradorContraseñ&lt;span class=&quot;hljs-keyword&quot;&gt;as&lt;/span&gt;(longitud, incluirMayusculas, incluirCaracteresEspeciales)&amp;nbsp;&lt;br&gt;&amp;nbsp;+ gets() / sets()&amp;nbsp;&lt;br&gt;&amp;nbsp;+ generarContraseña(): &lt;span class=&quot;hljs-type&quot;&gt;String&lt;/span&gt;&amp;nbsp;&lt;br&gt;&amp;nbsp;+ verificarFortaleza(contraseña: &lt;span class=&quot;hljs-type&quot;&gt;String&lt;/span&gt;): &lt;span class=&quot;hljs-type&quot;&gt;String&lt;/span&gt;&amp;nbsp;" style="text;strokeColor=none;fillColor=none;align=left;verticalAlign=top;spacingLeft=4;spacingRight=4;overflow=hidden;rotatable=0;points=[[0,0.5],[1,0.5]];portConstraint=eastwest;whiteSpace=wrap;html=1;" vertex="1" parent="2">
                    <mxGeometry y="138" width="290" height="92" as="geometry"/>
                </mxCell>
            </root>
        </mxGraphModel>
    </diagram>
</mxfile>